<svg width="24" height="24" viewBox="0 0 24 24" fill="none" xmlns="http://www.w3.org/2000/svg">
  <path d="M17.0392 9.27347C16.9843 9.21851 16.9175 9.17557 16.8437 9.14728C16.7699 9.11899 16.6909 9.10596 16.6117 9.10896H5.12008C5.06641 9.10896 5.01408 9.12338 4.96903 9.15066C4.92397 9.17794 4.88815 9.21702 4.86574 9.26358C4.84333 9.31014 4.83526 9.36235 4.84246 9.41369C4.84966 9.46503 4.87186 9.51334 4.90666 9.55347L6.96133 11.6081C7.01625 11.6631 7.08302 11.706 7.15683 11.7343C7.23064 11.7626 7.30964 11.7756 7.38883 11.7726H18.8804C18.9341 11.7726 18.9864 11.7582 19.0315 11.7309C19.0765 11.7037 19.1124 11.6646 19.1348 11.618C19.1572 11.5715 19.1653 11.5193 19.1581 11.4679C19.1509 11.4166 19.1287 11.3683 19.0939 11.3281L17.0392 9.27347Z" fill="#00FFA3"/>
  <path d="M18.8804 6.11397H7.38883C7.30964 6.11097 7.23064 6.12399 7.15683 6.15228C7.08302 6.18057 7.01625 6.22351 6.96133 6.27847L4.90666 8.33314C4.87186 8.37327 4.84966 8.42158 4.84246 8.47292C4.83526 8.52426 4.84333 8.57647 4.86574 8.62303C4.88815 8.66959 4.92397 8.70867 4.96903 8.73595C5.01408 8.76323 5.06641 8.77764 5.12008 8.77764H16.6117C16.6909 8.78064 16.7699 8.76762 16.8437 8.73933C16.9175 8.71104 16.9843 8.6681 17.0392 8.61314L19.0939 6.55847C19.1287 6.51834 19.1509 6.47003 19.1581 6.41869C19.1653 6.36735 19.1572 6.31514 19.1348 6.26858C19.1124 6.22202 19.0765 6.18294 19.0315 6.15566C18.9864 6.12838 18.9341 6.11397 18.8804 6.11397Z" fill="#00FFA3"/>
  <path d="M6.96133 12.7719C7.01625 12.7169 7.08302 12.674 7.15683 12.6457C7.23064 12.6174 7.30964 12.6044 7.38883 12.6074H18.8804C18.9341 12.6074 18.9864 12.6218 19.0315 12.6491C19.0765 12.6764 19.1124 12.7154 19.1348 12.762C19.1572 12.8086 19.1653 12.8608 19.1581 12.9121C19.1509 12.9634 19.1287 13.0117 19.0939 13.0519L17.0392 15.1065C16.9843 15.1615 16.9175 15.2044 16.8437 15.2327C16.7699 15.261 16.6909 15.274 16.6117 15.271H5.12008C5.06641 15.271 5.01408 15.2566 4.96903 15.2293C4.92397 15.202 4.88815 15.163 4.86574 15.1164C4.84333 15.0698 4.83526 15.0176 4.84246 14.9663C4.84966 14.915 4.87186 14.8666 4.90666 14.8265L6.96133 12.7719Z" fill="#00FFA3"/>
</svg> 